<?xml version="1.0" encoding="utf-8"?>
<!-- Generator: Adobe Illustrator 17.1.0, SVG Export Plug-In . SVG Version: 6.00 Build 0)  -->
<!DOCTYPE svg PUBLIC "-//W3C//DTD SVG 1.1//EN" "http://www.w3.org/Graphics/SVG/1.1/DTD/svg11.dtd">
<svg version="1.1" id="Layer_1" xmlns="http://www.w3.org/2000/svg" xmlns:xlink="http://www.w3.org/1999/xlink" x="0px" y="0px" height="50pt" width="90pt"
	 viewBox="0 0 70 70" enable-background="new 0 0 70 70" xml:space="preserve">
<polygon id="bottom" fill="#FF5722" stroke="#FF5722" points="35,58.4 25.2,53.6 25.2,53.6 25.2,53.6 14.8,58.7 35,68.5 55.2,58.7 
	44.8,53.5 "/>
<polygon id="right_1_" fill="#64DD17" stroke="#64DD17" points="14.9,58.7 14.9,48.6 24.8,43.7 35.1,48.8 "/>
<polygon id="right-2" fill="#64DD17" stroke="#64DD17" points="46.1,17 46.1,33 46.1,33 46.1,33 34.9,38.5 45.2,43.6 55.2,38.7 
	55.2,11.3 "/>
<polygon id="left_1_" fill="#673AB7" stroke="#673AB7" points="55.2,58.7 55.2,58.7 55.2,48.5 24,33 24,17 14.9,11.3 14.9,38.7 "/>
<polygon id="top" fill="#FF5722" stroke="#FF5722" points="23.9,16 23.9,16 35,10.6 46,16 55.1,10.3 35,0.5 14.8,10.3 14.8,10.3 
	23.9,16 "/>
</svg>
